<?xml version="1.0" standalone="no"?>
<!DOCTYPE svg PUBLIC "-//W3C//DTD SVG 20010904//EN"
 "http://www.w3.org/TR/2001/REC-SVG-20010904/DTD/svg10.dtd">
<svg version="1.0" xmlns="http://www.w3.org/2000/svg"
 width="512.000000pt" height="512.000000pt" viewBox="0 0 512.000000 512.000000"
 preserveAspectRatio="xMidYMid meet">

<g transform="translate(0.000000,512.000000) scale(0.100000,-0.100000)"
fill="#000000" stroke="none">
<path d="M1 4658 c1 -302 4 -442 10 -403 19 135 86 302 172 430 52 77 175 200
252 252 128 86 295 153 430 172 39 6 -101 9 -402 10 l-463 1 1 -462z"/>
<path d="M4230 5113 c134 -15 324 -88 451 -174 81 -54 203 -176 256 -254 86
-128 153 -295 172 -430 6 -39 9 101 10 403 l1 462 -462 -2 c-255 0 -447 -3
-428 -5z"/>
<path d="M865 4784 c-38 -9 -106 -33 -150 -54 -150 -73 -252 -175 -325 -325
-75 -154 -71 -46 -68 -1880 l3 -1640 27 -80 c39 -112 92 -198 173 -280 82 -81
168 -134 280 -173 l80 -27 1675 0 1675 0 80 27 c112 39 198 92 280 173 81 82
134 168 173 280 l27 80 0 1675 0 1675 -27 80 c-39 112 -92 198 -173 280 -82
81 -168 134 -280 173 l-80 27 -1650 2 c-1427 1 -1659 0 -1720 -13z m3218 -539
c68 -34 140 -106 170 -173 18 -39 22 -65 22 -157 0 -106 -1 -112 -34 -173
-154 -284 -588 -241 -678 67 -45 156 23 341 154 418 72 42 120 53 218 50 75
-3 100 -8 148 -32z m-1262 -405 c511 -104 910 -504 1020 -1022 31 -144 31
-370 0 -516 -109 -518 -505 -913 -1024 -1023 -133 -29 -360 -31 -490 -6 -533
105 -936 501 -1048 1030 -31 144 -31 370 0 514 121 571 581 983 1166 1047 79
8 278 -4 376 -24z"/>
<path d="M3882 3948 c-7 -7 -12 -21 -12 -33 0 -44 52 -61 83 -27 32 35 14 72
-33 72 -14 0 -31 -5 -38 -12z"/>
<path d="M2432 3540 c-219 -31 -411 -127 -568 -284 -131 -131 -213 -274 -262
-456 -21 -81 -25 -116 -25 -240 0 -122 4 -160 26 -240 48 -182 129 -325 261
-456 131 -132 274 -213 456 -262 81 -21 117 -25 240 -25 123 0 159 4 240 25
182 49 325 130 456 262 132 131 213 274 262 456 21 81 25 117 25 240 0 123 -4
159 -25 240 -49 182 -131 325 -262 456 -136 135 -274 214 -453 260 -107 27
-273 38 -371 24z"/>
<path d="M1 463 l-1 -463 463 1 c301 1 441 4 402 10 -135 19 -302 86 -430 172
-77 52 -200 175 -252 252 -86 128 -153 295 -172 430 -6 39 -9 -101 -10 -402z"/>
<path d="M5107 861 c-13 -121 -83 -297 -170 -426 -52 -77 -175 -200 -252 -252
-128 -86 -295 -153 -430 -172 -39 -6 101 -9 403 -10 l462 -1 0 460 c0 253 -2
460 -4 460 -2 0 -6 -26 -9 -59z"/>
</g>
</svg>
