<svg xmlns="http://www.w3.org/2000/svg" viewBox="0 0 900.42 154.92"><defs><style>.cls-1{fill:#23201e;stroke:#000;stroke-miterlimit:10;}</style></defs><title>wooden_20</title><g id="Шар_2" data-name="Шар 2"><g id="Шар_1-2" data-name="Шар 1"><path class="cls-1" d="M.52.5,899.28,2.65c.15,2.08.3,5.14.24,8.85-.15,8.74-1.36,13-2,19-.44,4.17-.17,5.13,1,23,.34,5.15.83,12.94,1.37,22.62l-11,.43a82.69,82.69,0,0,0-11.6-.43c-2.78.1-4.67.3-6.1.43a104.85,104.85,0,0,1-17.7,0H826.66l-48.83-.43H699.11l-50.66.43L607.56,77l-9.15.43-5.5-1.29-25.63.43-39.06-.43H507.47L466,75.69H422l-33.56.43h-9.16L372,75.69H331.71l-25.63-.86H278.61l-12.81.86-53.1-.43-64.08-.43-83-1.28-37.84-.43c-6.51.43-20,.86-26.53,1.28C.22,48.83,1.52,24.5.52.5Z"/><path class="cls-1" d="M1.15,77.5l897.13,2.15q.32,36.73.61,73.47l-11,.43a82.69,82.69,0,0,0-11.6-.43c-2.78.1-4.67.3-6.1.43a104.85,104.85,0,0,1-17.7,0H825.66l-48.83-.43H698.11l-50.66.43-40.89.43-9.15.43-5.5-1.29-25.63.43-39.06-.43H506.47l-41.5-.43H421l-33.56.43h-9.16l-7.32-.43H330.71l-25.63-.86H277.61l-12.81.86-53.1-.43-64.08-.43-83-1.28-37.84-.43c-6.51.43-18.75.95-25.26,1.38C1.52,125.5,1.52,103.5,1.15,77.5Z"/></g></g></svg>