<svg xmlns="http://www.w3.org/2000/svg" viewBox="0 0 903.58 227.3"><defs><style>.cls-1{fill:#23201e;stroke:#000;stroke-miterlimit:10;}</style></defs><title>wooden_top</title><g id="Шар_2" data-name="Шар 2"><g id="Шар_1-2" data-name="Шар 1"><path class="cls-1" d="M.51,149.1c.6-21.6,0-48.25.22-69.88C6.8,78.65,13.87,78.07,20,77.5H88.57l35.22-.86,74.69,1.72,117.81-1.29,129.35-.86L734.7,77.5l129.95.86,37.65-.86c-6.67,19.29-5.84,34.28-3.64,44.69,2.34,11.08,8.16,26.12.61,29.22a10,10,0,0,1-4.86.42c-14-1.47-28.42,1-42.51,0-1.44-.1-24.44-.21-70.44-.42-34.55-.17-34.74.09-75.3,0-27-.07-32.69-.19-73.48-.43-20.72-.13-58.46-.35-102.63-.43-44.84-.09-43.65.07-111.13,0-18.81,0-29.26-.05-46.76,0-34.07.08-51.11.13-70.44.43-16.55.25-25.68.51-42.51.43-18.43-.1-15.78-.45-30.36-.43-13.74,0-45.7.34-53.44.43-2.23,0-7.8.08-15.19-.43-3.21-.23-5.45-.47-9.1-.86-18.15-2-22.13-3.52-27.33-1.72a36.05,36.05,0,0,1-6.07,1.72c-2.65.48-5.68,1-7.9,0-1.61-.76-1.12-1.58-3-2.58-1.23-.65-3.7-1.5-5.46-.86-1.6.58-1,1.78-3,3.44-1.2,1-3.4,2.14-4.86,1.71-1-.29-.82-1.14-1.82-1.71-2-1.17-6.18.27-6.68.43-3.77,1.21-20.64,1.64-65.58,0Z"/><path class="cls-1" d="M13.76,153.32q30.56.93,59.81.86l36-1.29,55.54.43,64.69.86,57.36-.43,56.76-.86,59.2-.86,62.25-.43H525.8l58.59-.43,94,.43,90.33.43c42.92.29,90.85.58,133.77.86q.3,36.74.61,73.48c-5.7.14-16.39.28-22.09.43H531.9l-62.25-.86H354.92l-62.25-.43H168.78l-64.69-.43H74.18c-23.39,0-49.77.42-73.17.42,0-24,0-49-.06-72.61Q7.33,153.13,13.76,153.32Z"/><path class="cls-1" d="M1,.5,901.77,2.65q.32,36.74.61,73.47c-3.67.15-17.34.29-21,.43a82.93,82.93,0,0,0-11.62-.43c-2.79.1-4.68.3-6.12.43a105.31,105.31,0,0,1-17.74,0H819L770,76.12H691.12l-50.77.43-41,.43-9.18.43-5.5-1.29L559,76.55l-39.16-.43H499l-41.59-.43H413.39l-33.64.43h-9.18l-7.34-.43H322.85l-25.69-.86H269.63l-12.84.86-53.23-.43-64.23-.43-83.2-1.28c-12.64-.15-25.28,1.71-37.92,1.57C11.68,75.55.53,80.94.63,74.4,1,49.5,2,27.5,1,.5Z"/></g></g></svg>