<svg width="1964" height="139" viewBox="0 0 1964 139" fill="none" xmlns="http://www.w3.org/2000/svg">
<path d="M835.59 4.44889C835.59 4.44889 835.59 83.7989 835.59 119.949C834.89 131.769 837.01 136.509 834.69 138.109C814.5 136.799 792 141.999 795.9 133.419V4.99889C791.5 0.348892 828.42 3.13889 835.59 4.44889Z" fill="#191716" stroke="black" stroke-miterlimit="10"/>
<path d="M795.9 3.6488H752.5V138.109H795.9V3.6488Z" fill="#191716" stroke="black" stroke-miterlimit="10"/>
<path d="M710.34 3.73889V138.109L752.5 138.199V3.73889C740.61 5.83889 720.87 5.55889 710.34 3.73889Z" fill="#191716" stroke="black" stroke-miterlimit="10"/>
<path d="M960.84 3.6488V138.109H921.15V3.6488C936.79 4.1888 946.33 7.6788 960.84 3.6488Z" fill="#191716" stroke="black" stroke-miterlimit="10"/>
<path d="M877.75 3.64879V138.109H921.15V3.64879C891.92 7.19879 898.09 2.42879 877.75 3.64879Z" fill="#191716" stroke="black" stroke-miterlimit="10"/>
<path d="M835.59 4.17884V138.109L877.75 138.199C877.75 138.199 877.75 18.9688 877.75 5.04884C880.5 1.99884 849.73 5.99884 835.59 4.17884Z" fill="#191716" stroke="black" stroke-miterlimit="10"/>
<path d="M585.09 3.64885V138.109H545.4V3.64885C561.92 5.24885 562.29 -1.43115 585.09 3.64885Z" fill="#191716" stroke="black" stroke-miterlimit="10"/>
<path d="M502 3.64886V138.109H545.4C545.4 138.109 545.4 20.5089 545.4 5.25886C548.18 0.508859 516.75 3.63886 502 3.64886Z" fill="#191716" stroke="black" stroke-miterlimit="10"/>
<path d="M459.84 3.73883V138.109L502 138.199C502 138.199 502 22.1988 502 5.67883C505.63 0.998828 476.61 1.12883 459.84 3.73883Z" fill="#191716" stroke="black" stroke-miterlimit="10"/>
<path d="M710.34 3.6488V138.109H670.65V3.6488C681.5 5.6788 700.56 5.5288 710.34 3.6488Z" fill="#191716" stroke="black" stroke-miterlimit="10"/>
<path d="M627.25 3.64885V138.109H670.65V3.64885C656.06 6.42885 641.77 0.11885 627.25 3.64885Z" fill="#191716" stroke="black" stroke-miterlimit="10"/>
<path d="M585.09 3.73882V138.109L627.25 138.199C627.25 138.199 627.25 20.5888 627.25 5.34882C630.76 3.33882 600.5 -0.0711806 585.09 3.73882Z" fill="#191716" stroke="black" stroke-miterlimit="10"/>
<path d="M334.59 3.64884V138.109H294.9C294.9 138.109 294.9 18.8788 294.9 4.95884C293.99 -1.52116 318.1 10.7588 334.59 3.64884Z" fill="#191716" stroke="black" stroke-miterlimit="10"/>
<path d="M251.5 3.64888V138.109H294.9C294.9 138.109 294.9 20.5089 294.9 5.25887C297.6 -0.231125 268.5 3.77888 251.5 3.64888Z" fill="#191716" stroke="black" stroke-miterlimit="10"/>
<path d="M209.34 3.7389V138.109L251.5 138.199V3.7389C221.5 9.4089 227.88 -0.601098 209.34 3.7389Z" fill="#191716" stroke="black" stroke-miterlimit="10"/>
<path d="M459.84 3.6488V138.109H420.15C420.15 138.109 420.15 20.5088 420.15 5.2588C416.69 0.528796 443.25 5.9288 459.84 3.6488Z" fill="#191716" stroke="black" stroke-miterlimit="10"/>
<path d="M376.75 3.64891V138.109H420.15C420.15 138.109 420.15 18.8789 420.15 4.9589C419.85 -0.731095 391.5 7.61891 376.75 3.64891Z" fill="#191716" stroke="black" stroke-miterlimit="10"/>
<path d="M334.59 3.73889V138.109L376.75 138.199V3.73889C364.42 4.19889 348.44 4.25889 334.59 3.73889Z" fill="#191716" stroke="black" stroke-miterlimit="10"/>
<path d="M84.09 3.64884V138.109H44.4C44.4 138.109 44.4 22.1088 44.4 5.58884C40.4 0.178843 75.93 -0.421156 84.09 3.64884Z" fill="#191716" stroke="black" stroke-miterlimit="10"/>
<path d="M1 3.64885V138.109H44.4C44.4 138.109 44.4 20.5088 44.4 5.25884C47.65 1.15884 16.5 2.93885 1 3.64885Z" fill="#191716" stroke="black" stroke-miterlimit="10"/>
<path d="M209.34 3.64879V138.109H169.65C169.65 138.109 169.65 22.1088 169.65 5.58879C166.01 1.12879 191.39 1.99879 209.34 3.64879Z" fill="#191716" stroke="black" stroke-miterlimit="10"/>
<path d="M126.34 3.35889L126.25 138.109H169.65V3.64889L126.34 3.35889Z" fill="#191716" stroke="black" stroke-miterlimit="10"/>
<path d="M84.09 3.73888V138.109L126.25 138.199C126.61 92.9989 126.973 47.7989 127.34 2.59888C110.17 8.20888 103.73 4.43888 84.09 3.73888Z" fill="#191716" stroke="black" stroke-miterlimit="10"/>
<path d="M1837.59 3.60881V138.069H1797.9C1797.9 138.069 1797.9 20.4588 1797.9 5.21881C1794.76 -0.541193 1821.35 5.59881 1837.59 3.60881Z" fill="#191716" stroke="black" stroke-miterlimit="10"/>
<path d="M1754.5 3.60883V138.069H1797.9V3.60883C1778.13 5.88883 1771.8 -1.85117 1754.5 3.60883Z" fill="#191716" stroke="black" stroke-miterlimit="10"/>
<path d="M1712.34 3.69889V138.069L1754.5 138.159C1754.5 138.159 1754.5 20.5489 1754.5 5.29889C1756.69 2.29889 1744.25 3.41889 1732.65 3.87889C1726.05 3.49889 1719.6 -0.151106 1712.34 3.69889Z" fill="#191716" stroke="black" stroke-miterlimit="10"/>
<path d="M1962.84 3.60885V138.069H1923.15C1923.15 138.069 1923.15 20.4589 1923.15 5.21885C1921.9 -2.00115 1947.04 8.53885 1962.84 3.60885Z" fill="#191716" stroke="black" stroke-miterlimit="10"/>
<path d="M1879.75 3.60886V138.069H1923.15V3.60886C1906.32 7.31886 1895.3 0.0588555 1879.75 3.60886Z" fill="#191716" stroke="black" stroke-miterlimit="10"/>
<path d="M1837.59 3.69887V138.069L1879.75 138.159V3.69887C1863.4 7.57887 1852.09 -0.391129 1837.59 3.69887Z" fill="#191716" stroke="black" stroke-miterlimit="10"/>
<path d="M1587.09 3.6088V138.069H1547.4C1547.4 138.069 1547.4 20.4588 1547.4 5.2188C1544.5 0.998797 1571.64 2.2788 1587.09 3.6088Z" fill="#191716" stroke="black" stroke-miterlimit="10"/>
<path d="M1504 3.60883V138.069H1547.4C1547.4 138.069 1547.4 18.8288 1547.4 4.91883C1550.43 1.76883 1518.94 4.45883 1504 3.60883Z" fill="#191716" stroke="black" stroke-miterlimit="10"/>
<path d="M1461.84 3.69879V138.069L1504 138.159C1504 138.159 1504 20.5488 1504 5.29879C1506.97 2.61879 1476.85 2.25879 1461.84 3.69879Z" fill="#191716" stroke="black" stroke-miterlimit="10"/>
<path d="M1712.34 3.6088V138.069H1672.65V3.6088C1687.19 5.5288 1698.69 -1.4312 1712.34 3.6088Z" fill="#191716" stroke="black" stroke-miterlimit="10"/>
<path d="M1629.25 3.60889V138.069H1672.65C1672.65 138.069 1672.65 20.4589 1672.65 5.21889C1676.41 1.56889 1645.5 2.62889 1629.25 3.60889Z" fill="#191716" stroke="black" stroke-miterlimit="10"/>
<path d="M1587.09 3.69879V138.069L1629.25 138.159C1629.25 138.159 1629.25 20.5488 1629.25 5.29879C1632.82 1.73879 1601.87 4.25879 1587.09 3.69879Z" fill="#191716" stroke="black" stroke-miterlimit="10"/>
<path d="M1336.59 3.60882V138.069H1296.9C1296.9 138.069 1296.9 20.4588 1296.9 5.21882C1294.85 -0.511183 1318.33 5.57882 1336.59 3.60882Z" fill="#191716" stroke="black" stroke-miterlimit="10"/>
<path d="M1253.5 3.6088V138.069H1296.9V3.6088C1269.65 8.4588 1270.75 -2.0012 1253.5 3.6088Z" fill="#191716" stroke="black" stroke-miterlimit="10"/>
<path d="M1211.34 3.69888V138.069L1253.5 138.159V3.69888C1236.37 7.58888 1226.99 -0.00111866 1211.34 3.69888Z" fill="#191716" stroke="black" stroke-miterlimit="10"/>
<path d="M1461.84 3.60883V138.069H1422.15C1422.15 138.069 1422.15 20.4588 1422.15 5.21883C1419.04 0.348829 1445.55 4.22883 1461.84 3.60883Z" fill="#191716" stroke="black" stroke-miterlimit="10"/>
<path d="M1378.75 3.60885V138.069H1422.15C1422.15 138.069 1422.15 20.4589 1422.15 5.21885C1424.35 0.868852 1395.5 4.44885 1378.75 3.60885Z" fill="#191716" stroke="black" stroke-miterlimit="10"/>
<path d="M1336.59 3.69885V138.069L1378.75 138.159C1378.75 138.159 1378.75 20.5489 1378.75 5.29885C1381.74 1.47885 1352.61 2.32885 1336.59 3.69885Z" fill="#191716" stroke="black" stroke-miterlimit="10"/>
<path d="M1086.09 3.60889V138.069H1046.4C1046.4 138.069 1046.4 20.4589 1046.4 5.21889C1042.19 1.44889 1071.18 5.59889 1086.09 3.60889Z" fill="#191716" stroke="black" stroke-miterlimit="10"/>
<path d="M1003 3.60888V138.069H1046.4C1046.4 138.069 1046.4 18.8389 1046.4 4.91887C1050.01 2.77887 1015.38 2.51888 1003 3.60888Z" fill="#191716" stroke="black" stroke-miterlimit="10"/>
<path d="M960.84 3.6989V138.069L1003 138.159C1003 138.159 1003 20.5489 1003 5.2989C1006.19 2.3089 975.39 1.1589 960.84 3.6989Z" fill="#191716" stroke="black" stroke-miterlimit="10"/>
<path d="M1211.34 3.60889V138.069H1171.65V3.60889C1182.83 6.40889 1202.43 5.80889 1211.34 3.60889Z" fill="#191716" stroke="black" stroke-miterlimit="10"/>
<path d="M1128.25 3.60881V138.069H1171.65C1171.65 138.069 1171.65 22.0688 1171.65 5.53881C1175.9 1.79881 1145.2 1.52881 1128.25 3.60881Z" fill="#191716" stroke="black" stroke-miterlimit="10"/>
<path d="M1086.09 3.69886V138.069L1128.25 138.159C1128.25 138.159 1128.25 22.1589 1128.25 5.62886C1131.77 2.15886 1104.08 -0.901136 1086.09 3.69886Z" fill="#191716" stroke="black" stroke-miterlimit="10"/>
<path style="mix-blend-mode:color-burn" d="M1963.34 3.35889H1.33997V137.729H1963.34V3.35889Z" fill="url(#paint0_linear)"/>
<defs>
<linearGradient id="paint0_linear" x1="982.34" y1="47.5989" x2="982.34" y2="194.819" gradientUnits="userSpaceOnUse">
<stop stop-color="white" stop-opacity="0"/>
<stop offset="0.14" stop-color="#777777" stop-opacity="0.53"/>
<stop offset="1"/>
</linearGradient>
</defs>
</svg>
