<svg xmlns="http://www.w3.org/2000/svg" viewBox="0 0 901.12 150.58"><defs><style>.cls-1{fill:#23201e;stroke:#000;stroke-miterlimit:10;}</style></defs><title>wooden_30</title><g id="Шар_2" data-name="Шар 2"><g id="Шар_1-2" data-name="Шар 1"><path class="cls-1" d="M.62,74.79c.4-21.63-.41-49.37,0-71,6.1-.57,6.42-1.43,12.53-2h69l35.4-.86,75.06,1.72L311,1.36,441,.5l290.5,1.29,130.61.86,37.84-.86c-6.71,19.29-5.88,34.28-3.67,44.68,2.35,11.08,8.2,26.13.61,29.22a10.07,10.07,0,0,1-4.88.43c-14.08-1.48-28.56,1-42.72,0-1.45-.11-24.57-.21-70.79-.43-34.72-.16-34.92.09-75.68,0-27.12-.06-32.85-.18-73.85-.43-20.82-.12-58.75-.34-103.14-.43-45.06-.08-43.87.08-111.68,0-18.91,0-29.4,0-47,0-34.24.09-51.36.14-70.8.43-16.62.26-25.8.52-42.72.43-18.51-.09-15.85-.44-30.51-.43-13.8,0-45.92.35-53.71.43-2.23,0-7.83.09-15.26-.43-3.23-.22-5.47-.46-9.15-.86-18.23-2-22.24-3.52-27.46-1.72a34.4,34.4,0,0,1-6.11,1.72c-2.65.49-5.7,1-7.93,0-1.61-.76-1.12-1.57-3-2.57-1.24-.65-3.72-1.5-5.49-.86-1.61.57-1,1.78-3.06,3.43-1.21,1-3.41,2.15-4.88,1.72-1-.3-.83-1.14-1.83-1.72-2-1.16-6.21.27-6.71.43-3.79,1.22-20.74,1.65-65.91,0Z"/><path class="cls-1" d="M13.37,76.61q30.56.92,59.81.86l36-1.29,55.54.43,64.69.86L286.78,77l56.76-.86,59.2-.86L465,74.89H525.4L584,74.46l94,.43,90.32.43,128.77.86q.31,36.73.61,73.47l-17.08.43H531.51l-62.25-.85H354.52l-62.25-.43H168.38l-64.69-.43H1.6c-1-24.07,0-48.13-1-72.19Q6.93,76.42,13.37,76.61Z"/></g></g></svg>